# xmcd CD database file
#
# Track frame offsets:
#	150
#	19037
#	38400
#	61712
#	83250
#	100287
#	122080
#	141515
#	161062
#	179380
#	196232
#
# Disc length: 2807 seconds
#
# Revision: 3
# Processed by: cddbd v1.5.2PL0 Copyright (c) Steve Scherf et al.
# Submitted via: CDex 1.51
#
DISCID=840af50b
DTITLE=Roger - Unlimited!
DYEAR=1987
DGENRE=R&B
TTITLE0=I Want to be Your Man
TTITLE1=Night And Day
TTITLE2=Been This Way Before (Rap)
TTITLE3=Composition to Commemorate (May 30, 1918)
TTITLE4=Papa's Got a Brand New Bag
TTITLE5=Thrill Seekers
TTITLE6=Tender Moments
TTITLE7=If You're Serious
TTITLE8=Private Lover
TTITLE9=I Really Want to be Your Man
TTITLE10=Bedistgutarist-A-Rown
EXTD=YEAR: 1987
EXTT0=
EXTT1=
EXTT2=
EXTT3=
EXTT4=
EXTT5=
EXTT6=
EXTT7=
EXTT8=
EXTT9=
EXTT10=
PLAYORDER=
